<?xml version="1.0" encoding="UTF-8" standalone="no"?>
<!-- Created with Inkscape (http://www.inkscape.org/) -->

<svg
   xmlns:dc="http://purl.org/dc/elements/1.1/"
   xmlns:cc="http://creativecommons.org/ns#"
   xmlns:rdf="http://www.w3.org/1999/02/22-rdf-syntax-ns#"
   xmlns:svg="http://www.w3.org/2000/svg"
   xmlns="http://www.w3.org/2000/svg"
   xmlns:sodipodi="http://sodipodi.sourceforge.net/DTD/sodipodi-0.dtd"
   xmlns:inkscape="http://www.inkscape.org/namespaces/inkscape"
   version="1.0"
   width="300"
   height="200"
   id="svg2440"
   inkscape:version="0.92.4 (5da689c313, 2019-01-14)"
   sodipodi:docname="Flag_of_Montgomery_County,_Maryland.svg">
  <sodipodi:namedview
     pagecolor="#ffffff"
     bordercolor="#666666"
     borderopacity="1"
     objecttolerance="10"
     gridtolerance="10"
     guidetolerance="10"
     inkscape:pageopacity="0"
     inkscape:pageshadow="2"
     inkscape:window-width="1526"
     inkscape:window-height="877"
     id="namedview33"
     showgrid="false"
     fit-margin-top="0"
     fit-margin-left="0"
     fit-margin-right="0"
     fit-margin-bottom="0"
     inkscape:zoom="2.0493827"
     inkscape:cx="139.50728"
     inkscape:cy="74.034392"
     inkscape:window-x="66"
     inkscape:window-y="-8"
     inkscape:window-maximized="1"
     inkscape:current-layer="svg2440" />
  <metadata
     id="metadata2445">
    <rdf:RDF>
      <cc:Work
         rdf:about="">
        <dc:format>image/svg+xml</dc:format>
        <dc:type
           rdf:resource="http://purl.org/dc/dcmitype/StillImage" />
        <dc:title />
      </cc:Work>
    </rdf:RDF>
  </metadata>
  <defs
     id="defs2443" />
  <rect
     style="fill:#0096d5;fill-opacity:1;fill-rule:nonzero;stroke:none;stroke-width:0.92592591"
     id="rect3063"
     y="6.5429685e-06"
     x="0"
     height="199.99998"
     width="300" />
  <g
     id="g1837"
     transform="scale(0.97087379,1)">
    <path
       d="m 28.090865,86.36389 v 27.27249 H 0 V 200 H 154.49999 V 113.63638 86.36389 h -14.04567 v 27.27249 H 112.36346 V 86.36389 H 84.272597 v 27.27249 H 56.181731 V 86.36389 Z"
       id="rect2786"
       style="fill:#ff1b2c;fill-opacity:1;fill-rule:evenodd;stroke:none;stroke-width:0.93971217"
       inkscape:connector-curvature="0" />
    <path
       d="M 309,0 V 113.63638 H 280.90865 V 86.36389 h -28.09086 v 27.27249 H 224.72692 V 86.36389 h -28.09087 v 27.27249 H 168.54519 V 86.36389 h -14.0452 V 0 Z"
       id="path2837"
       style="fill:#ff1b2c;fill-opacity:1;stroke:none;stroke-width:0.93971217"
       inkscape:connector-curvature="0" />
  </g>
  <g
     id="g1859"
     transform="translate(-4.5000005,0.00300811)">
    <path
       inkscape:connector-curvature="0"
       style="fill:#f9b000;fill-opacity:1;stroke:none;stroke-width:0.87914211"
       id="path3699"
       d="m 231.75,16.005482 c -16.56,0 -30,14.441694 -30,32.235922 0,0.506741 0.0292,0.994936 0.0506,1.495978 -0.0227,0.467688 -0.0506,0.926311 -0.0506,1.399464 0,14.676248 11.04595,26.799657 25.43919,28.954422 1.48914,0.244715 3.00831,0.386059 4.56081,0.386059 0.5175,0 1.00918,-0.02039 1.52027,-0.04825 0.51997,-0.02536 1.05823,-0.04555 1.57093,-0.09652 0.50407,-0.05505 0.97324,-0.15972 1.46961,-0.241286 C 250.70405,77.936514 261.75,65.813105 261.75,51.136858 c 0,-0.473154 -0.0281,-0.931777 -0.0506,-1.399464 0.0215,-0.501043 0.0506,-0.989238 0.0506,-1.495978 0,-17.794229 -13.44,-32.235923 -30,-32.235923 z m 0,16.793564 c 11.7663,0 21.33445,9.339539 21.33445,20.847184 0,11.507645 -9.56813,20.847183 -21.33445,20.847183 -11.76632,0 -21.33447,-9.339538 -21.33447,-20.847183 0,-11.507645 9.56815,-20.847184 21.33447,-20.847184 z" />
    <path
       inkscape:connector-curvature="0"
       style="fill:#0096d5;fill-opacity:1;stroke:none;stroke-width:1.37743402"
       id="path3701"
       d="m 248.06757,17.06714 a 16.317569,8.5898117 0 1 1 -32.63513,0 16.317569,8.5898117 0 1 1 32.63513,0 z" />
    <path
       inkscape:connector-curvature="0"
       style="fill:#f9b000;fill-opacity:1;fill-rule:evenodd;stroke:none;stroke-width:1.11713624"
       id="path4574"
       d="m 226.88429,168.25979 c -1.99898,4.48209 -4.47025,6.29648 -6.86924,8.49886 2.68896,0.0117 5.36914,-0.47871 8.14674,-2.69153 0.0473,6.82765 1.0835,9.16161 3.58122,11.45555 2.4694,-2.22224 3.6105,-4.62036 3.60217,-11.45555 2.77761,2.21282 5.45081,2.70318 8.13977,2.69153 -2.39882,-2.20222 -4.86336,-4.0175 -6.86226,-8.49886 z" />
    <path
       inkscape:connector-curvature="0"
       style="fill:#f9b000;fill-opacity:1;fill-rule:evenodd;stroke:none;stroke-width:1.11713624"
       id="path4576"
       d="m 231.74724,125.52267 c -7.80561,7.86924 -10.81022,16.93418 -4.60741,28.28752 1.41664,3.44907 2.53289,7.01006 2.30371,11.08431 h 4.60742 c -0.22919,-4.07425 0.88705,-7.63524 2.3037,-11.08431 6.20281,-11.35334 3.19821,-20.41828 -4.60742,-28.28752 z" />
    <path
       inkscape:connector-curvature="0"
       style="fill:#f9b000;fill-opacity:1;fill-rule:evenodd;stroke:none;stroke-width:1.11713624"
       id="path4578"
       d="m 215.20941,145.05279 c -7.87122,0.17933 -13.1191,12.73221 3.39971,18.85393 -5.45958,-10.15608 4.6679,-6.3922 6.0036,0.98778 h 3.91631 c -2.16226,-14.98997 -8.27706,-19.95659 -13.31962,-19.84171 z" />
    <path
       inkscape:connector-curvature="0"
       style="fill:#f9b000;fill-opacity:1;fill-rule:evenodd;stroke:none;stroke-width:1.11713624"
       id="path4580"
       d="m 247.9849,145.05279 c -4.98191,0.0886 -10.89347,5.1517 -13.01246,19.84171 h 3.90932 c 1.33578,-7.37998 11.47018,-11.14386 6.01059,-0.98778 16.73059,-6.20021 11.12962,-18.99684 3.09255,-18.85393 z" />
    <path
       inkscape:connector-curvature="0"
       style="fill:none;stroke:#000000;stroke-width:1.11713624;stroke-linecap:butt;stroke-linejoin:miter;stroke-miterlimit:4;stroke-dasharray:none;stroke-opacity:1"
       id="path4582"
       d="m 226.59945,164.99585 c -0.6969,-4.46814 -2.4019,-7.94212 -4.19143,-10.08695" />
    <path
       inkscape:connector-curvature="0"
       style="fill:none;stroke:#000000;stroke-width:1.11713576;stroke-linecap:butt;stroke-linejoin:miter;stroke-miterlimit:4;stroke-dasharray:none;stroke-opacity:1"
       id="path4584"
       d="m 236.90052,164.99585 c 0.6969,-4.46814 2.40191,-7.94212 4.19143,-10.08695" />
    <path
       inkscape:connector-curvature="0"
       style="fill:none;stroke:#000000;stroke-width:1.11713624;stroke-linecap:butt;stroke-linejoin:miter;stroke-opacity:1"
       id="path4586"
       d="M 231.63275,175.85977 V 143.04139" />
    <rect
       style="display:inline;overflow:visible;visibility:visible;fill:#f9b000;fill-opacity:1;fill-rule:nonzero;stroke:#000000;stroke-width:0.27928406;stroke-linecap:butt;stroke-linejoin:miter;stroke-miterlimit:4;stroke-dasharray:none;stroke-dashoffset:0;stroke-opacity:1;marker:none"
       id="rect4588"
       y="164.89551"
       x="220.91559"
       height="3.3672953"
       width="21.668814" />
    <path
       inkscape:connector-curvature="0"
       style="fill:#f9b000;fill-opacity:1;fill-rule:evenodd;stroke:none;stroke-width:1.11713636"
       id="path3045"
       d="m 72.384285,57.214448 c -1.998976,4.482081 -4.470247,6.296472 -6.869242,8.498851 2.688963,0.01166 5.369144,-0.478709 8.146755,-2.691524 0.04731,6.827647 1.083492,9.161611 3.58122,11.455551 2.469393,-2.222241 3.610493,-4.620355 3.602163,-11.455551 2.777609,2.212818 5.450811,2.703183 8.139774,2.691524 -2.398822,-2.202217 -4.863364,-4.017496 -6.862261,-8.498851 z" />
    <path
       inkscape:connector-curvature="0"
       style="fill:#f9b000;fill-opacity:1;fill-rule:evenodd;stroke:none;stroke-width:1.11713636"
       id="path3047"
       d="m 77.247245,14.477328 c -7.805621,7.869234 -10.810227,16.934179 -4.607419,28.287519 1.416653,3.449067 2.532895,7.010065 2.30371,11.084305 h 4.607419 c -0.229184,-4.07424 0.887055,-7.635238 2.303709,-11.084305 6.20281,-11.353339 3.198202,-20.418285 -4.607419,-28.287519 z" />
    <path
       inkscape:connector-curvature="0"
       style="fill:#f9b000;fill-opacity:1;fill-rule:evenodd;stroke:none;stroke-width:1.11713636"
       id="path3049"
       d="m 60.709405,34.00745 c -7.871216,0.17933 -13.119095,12.732205 3.399716,18.853925 -5.459586,-10.156074 4.667901,-6.392204 6.003607,0.987777 h 3.916305 C 71.866768,38.859178 65.751978,33.892564 60.709405,34.00745 Z" />
    <path
       inkscape:connector-curvature="0"
       style="fill:#f9b000;fill-opacity:1;fill-rule:evenodd;stroke:none;stroke-width:1.11713636"
       id="path3051"
       d="m 93.484906,34.00745 c -4.981914,0.08859 -10.893479,5.151696 -13.012468,19.841702 h 3.909326 C 85.717537,46.469171 95.851935,42.705301 90.392351,52.861375 107.12294,46.66117 101.52197,33.86453 93.484906,34.00745 Z" />
    <path
       inkscape:connector-curvature="0"
       style="fill:none;stroke:#000000;stroke-width:1.11713636;stroke-linecap:butt;stroke-linejoin:miter;stroke-miterlimit:4;stroke-dasharray:none;stroke-opacity:1"
       id="path3053"
       d="M 72.099454,53.950509 C 71.402554,49.48237 69.697547,46.008383 67.908018,43.863553" />
    <path
       inkscape:connector-curvature="0"
       style="fill:none;stroke:#000000;stroke-width:1.11713576;stroke-linecap:butt;stroke-linejoin:miter;stroke-miterlimit:4;stroke-dasharray:none;stroke-opacity:1"
       id="path3055"
       d="m 82.400527,53.950509 c 0.696899,-4.468139 2.401905,-7.942126 4.191431,-10.086956" />
    <path
       inkscape:connector-curvature="0"
       style="fill:none;stroke:#000000;stroke-width:1.11713636;stroke-linecap:butt;stroke-linejoin:miter;stroke-opacity:1"
       id="path3057"
       d="M 77.132757,64.814427 V 31.996052" />
    <rect
       style="display:inline;overflow:visible;visibility:visible;fill:#f9b000;fill-opacity:1;fill-rule:nonzero;stroke:#000000;stroke-width:0.27928409;stroke-linecap:butt;stroke-linejoin:miter;stroke-miterlimit:4;stroke-dasharray:none;stroke-dashoffset:0;stroke-opacity:1;marker:none"
       id="rect3059"
       y="53.850155"
       x="66.415588"
       height="3.367295"
       width="21.668818" />
    <path
       inkscape:connector-curvature="0"
       style="fill:#f9b000;fill-opacity:1;stroke:none;stroke-width:0.87914205"
       id="path3063"
       d="m 77.249998,127.05083 c -16.559999,0 -29.999997,14.44168 -29.999997,32.23592 0,0.50674 0.02919,0.99493 0.05063,1.49598 -0.02271,0.46768 -0.05063,0.92631 -0.05063,1.39946 0,14.67625 11.045945,26.79966 25.439187,28.95442 1.489144,0.24472 3.008306,0.38606 4.56081,0.38606 0.517496,0 1.00918,-0.0204 1.520271,-0.0483 0.519964,-0.0254 1.058234,-0.0455 1.570936,-0.0965 0.504054,-0.055 0.973225,-0.15972 1.469603,-0.24129 C 96.20405,188.98184 107.25,176.85843 107.25,162.18218 c 0,-0.47315 -0.0281,-0.93178 -0.0506,-1.39946 0.0215,-0.50105 0.0506,-0.98924 0.0506,-1.49598 0,-17.79423 -13.440003,-32.23592 -30.000002,-32.23592 z m 0,16.79355 c 11.766306,0 21.334446,9.33954 21.334446,20.8472 0,11.50764 -9.568122,20.84718 -21.334446,20.84718 -11.766323,0 -21.334466,-9.33954 -21.334466,-20.84718 0,-11.50766 9.568143,-20.8472 21.334466,-20.8472 z" />
    <path
       inkscape:connector-curvature="0"
       style="fill:#0096d5;fill-opacity:1;stroke:none;stroke-width:1.3774339"
       id="path3065"
       d="m 93.567565,128.11249 a 16.317566,8.5898222 0 1 1 -32.635133,0 16.317567,8.589812 0 1 1 32.635133,0 z" />
  </g>
</svg>
